<mxfile host="app.diagrams.net" modified="2024-05-18T04:37:33.561Z" agent="Mozilla/5.0 (Windows NT 10.0; Win64; x64) AppleWebKit/537.36 (KHTML, like Gecko) Chrome/124.0.0.0 Safari/537.36" etag="d_iUN9UTQW4zbsM3IkcY" version="24.4.4" type="device">
  <diagram name="Page-1" id="H43whpUapfi9x41UZMww">
    <mxGraphModel dx="1032" dy="539" grid="1" gridSize="10" guides="1" tooltips="1" connect="1" arrows="1" fold="1" page="1" pageScale="1" pageWidth="850" pageHeight="1100" math="0" shadow="0">
      <root>
        <mxCell id="0" />
        <mxCell id="1" parent="0" />
        <mxCell id="0QkHCGNKj1RuSWw18Gy6-8" style="edgeStyle=orthogonalEdgeStyle;rounded=0;orthogonalLoop=1;jettySize=auto;html=1;exitX=0;exitY=0.75;exitDx=0;exitDy=0;startArrow=classic;startFill=1;" parent="1" edge="1">
          <mxGeometry relative="1" as="geometry">
            <mxPoint x="384" y="420" as="targetPoint" />
            <mxPoint x="417" y="198.5" as="sourcePoint" />
          </mxGeometry>
        </mxCell>
        <mxCell id="0QkHCGNKj1RuSWw18Gy6-9" style="edgeStyle=orthogonalEdgeStyle;rounded=0;orthogonalLoop=1;jettySize=auto;html=1;exitX=1;exitY=0.75;exitDx=0;exitDy=0;startArrow=classic;startFill=1;" parent="1" source="0QkHCGNKj1RuSWw18Gy6-1" edge="1">
          <mxGeometry relative="1" as="geometry">
            <mxPoint x="520" y="420" as="targetPoint" />
          </mxGeometry>
        </mxCell>
        <mxCell id="0QkHCGNKj1RuSWw18Gy6-1" value="" style="shape=image;html=1;verticalAlign=top;verticalLabelPosition=bottom;labelBackgroundColor=#ffffff;imageAspect=0;aspect=fixed;image=https://cdn1.iconfinder.com/data/icons/vehicle-37/24/Drone-128.png" parent="1" vertex="1">
          <mxGeometry x="413" y="140" width="78" height="78" as="geometry" />
        </mxCell>
        <mxCell id="0QkHCGNKj1RuSWw18Gy6-2" value="&lt;b&gt;Drone mounted with Raspberry Pi 3B+&lt;/b&gt;" style="text;html=1;strokeColor=none;fillColor=none;align=center;verticalAlign=middle;whiteSpace=wrap;rounded=0;" parent="1" vertex="1">
          <mxGeometry x="384" y="110" width="136" height="30" as="geometry" />
        </mxCell>
        <mxCell id="0QkHCGNKj1RuSWw18Gy6-4" value="" style="sketch=0;aspect=fixed;pointerEvents=1;shadow=0;dashed=0;html=1;strokeColor=none;labelPosition=center;verticalLabelPosition=bottom;verticalAlign=top;align=center;fillColor=#000000;shape=mxgraph.mscae.enterprise.android_phone" parent="1" vertex="1">
          <mxGeometry x="491" y="430" width="36" height="60" as="geometry" />
        </mxCell>
        <mxCell id="0QkHCGNKj1RuSWw18Gy6-14" style="edgeStyle=orthogonalEdgeStyle;rounded=0;orthogonalLoop=1;jettySize=auto;html=1;exitX=0;exitY=0.5;exitDx=0;exitDy=0;exitPerimeter=0;curved=1;" parent="1" edge="1">
          <mxGeometry relative="1" as="geometry">
            <mxPoint x="398.62068965517244" y="170" as="targetPoint" />
            <mxPoint x="367" y="460.0000000000001" as="sourcePoint" />
            <Array as="points">
              <mxPoint x="220" y="460" />
              <mxPoint x="220" y="170" />
            </Array>
          </mxGeometry>
        </mxCell>
        <mxCell id="0QkHCGNKj1RuSWw18Gy6-3" value="" style="sketch=0;aspect=fixed;pointerEvents=1;shadow=0;dashed=0;html=1;strokeColor=none;labelPosition=center;verticalLabelPosition=bottom;verticalAlign=top;align=center;fillColor=#000000;shape=mxgraph.mscae.enterprise.android_phone" parent="1" vertex="1">
          <mxGeometry x="377" y="430" width="36" height="60" as="geometry" />
        </mxCell>
        <mxCell id="0QkHCGNKj1RuSWw18Gy6-7" value="" style="shape=mxgraph.arrows2.wedgeArrowDashed2;html=1;bendable=0;startWidth=50;stepSize=15;rounded=0;" parent="1" edge="1">
          <mxGeometry width="100" height="100" relative="1" as="geometry">
            <mxPoint x="452" y="420" as="sourcePoint" />
            <mxPoint x="452" y="210" as="targetPoint" />
          </mxGeometry>
        </mxCell>
        <mxCell id="0QkHCGNKj1RuSWw18Gy6-11" value="&lt;b&gt;Android Devices with AndroCom App&lt;/b&gt;" style="text;html=1;strokeColor=none;fillColor=none;align=center;verticalAlign=middle;whiteSpace=wrap;rounded=0;" parent="1" vertex="1">
          <mxGeometry x="384" y="500" width="136" height="30" as="geometry" />
        </mxCell>
        <mxCell id="0QkHCGNKj1RuSWw18Gy6-17" value="Send TCP/IP packets to Raspberry Pi" style="text;html=1;strokeColor=none;fillColor=none;align=center;verticalAlign=middle;whiteSpace=wrap;rounded=0;rotation=0;" parent="1" vertex="1">
          <mxGeometry x="100" y="290" width="120" height="30" as="geometry" />
        </mxCell>
        <mxCell id="0QkHCGNKj1RuSWw18Gy6-18" style="edgeStyle=orthogonalEdgeStyle;rounded=0;orthogonalLoop=1;jettySize=auto;html=1;exitX=0;exitY=0.5;exitDx=0;exitDy=0;exitPerimeter=0;curved=1;endArrow=none;endFill=0;startArrow=classic;startFill=1;" parent="1" edge="1">
          <mxGeometry relative="1" as="geometry">
            <mxPoint x="510.0000000000001" y="170" as="targetPoint" />
            <mxPoint x="541.6206896551726" y="460.0000000000001" as="sourcePoint" />
            <Array as="points">
              <mxPoint x="688.6206896551726" y="460" />
              <mxPoint x="688.6206896551726" y="170" />
            </Array>
          </mxGeometry>
        </mxCell>
        <mxCell id="0QkHCGNKj1RuSWw18Gy6-19" value="Broadcast data packets to respective IP" style="text;html=1;strokeColor=none;fillColor=none;align=center;verticalAlign=middle;whiteSpace=wrap;rounded=0;rotation=0;" parent="1" vertex="1">
          <mxGeometry x="700" y="290" width="120" height="30" as="geometry" />
        </mxCell>
        <mxCell id="0QkHCGNKj1RuSWw18Gy6-23" value="Connect with ah hoc network and create TCP/IP sockets" style="rounded=0;whiteSpace=wrap;html=1;" parent="1" vertex="1">
          <mxGeometry x="392" y="300" width="120" height="60" as="geometry" />
        </mxCell>
      </root>
    </mxGraphModel>
  </diagram>
</mxfile>
